<svg xmlns="http://www.w3.org/2000/svg" viewBox="0 0 40 40" fill="none">
  <rect width="40" height="40" rx="10" fill="#16a34a"/>
  <path d="M20 8C13.373 8 8 13.373 8 20s5.373 12 12 12 12-5.373 12-12S26.627 8 20 8zm0 3.5c4.694 0 8.5 3.806 8.5 8.5s-3.806 8.5-8.5 8.5-8.5-3.806-8.5-8.5 3.806-8.5 8.5-8.5z" fill="white" opacity="0.3"/>
  <circle cx="20" cy="20" r="5" fill="white"/>
  <path d="M20 15v-4M20 29v-4M25 20h4M11 20h4" stroke="white" stroke-width="2" stroke-linecap="round" opacity="0.6"/>
  <path d="M23.54 16.46l2.83-2.83M13.63 26.37l2.83-2.83M23.54 23.54l2.83 2.83M13.63 13.63l2.83 2.83" stroke="white" stroke-width="1.5" stroke-linecap="round" opacity="0.35"/>
</svg>
